# xmcd
#
# Track frame offsets:
#	150
#	13435
#	30036
#	45368
#	60856
#	77654
#	94029
#	103819
#	121964
#	144415
#
# Disc length: 2138 seconds
#
# Revision: 0
# Processed by: cddbd v1.5.2PL0 Copyright (c) Steve Scherf et al.
# Submitted via: audiograbber 1.83.01
#
DISCID=6f08580a
DTITLE=JonesTM - HC200823
DYEAR=2008
DGENRE=Country
TTITLE0=George Strait - Troubadour
TTITLE1=Emma Mae Jacob - With You
TTITLE2=Kory Brunson Band - Hard Country
TTITLE3=John Mellencamp - My Sweet Love
TTITLE4=Sara Evans - Love You With All My Heart
TTITLE5=Lee Brice - Upper Middle Class White Trash
TTITLE6=Brent Burns - Pain At The Pump [Album Version]
TTITLE7=Usher - Moving Mountains [Radio Edit]
TTITLE8=Najee - Out Of A Dream [Album Version]
TTITLE9=Paul Taylor - Streamline [Radio Edit]
EXTD=
EXTT0=
EXTT1=
EXTT2=
EXTT3=
EXTT4=
EXTT5=
EXTT6=
EXTT7=
EXTT8=
EXTT9=
PLAYORDER=
